<svg width="1600" height="900" viewBox="0 0 1600 900" fill="none" xmlns="http://www.w3.org/2000/svg">
  <rect width="1600" height="900" fill="#f8fafc"/>
  <rect x="84" y="66" width="1432" height="768" rx="36" fill="#ffffff" stroke="#dbe4ee" stroke-width="2"/>
  <rect x="84" y="66" width="1432" height="104" rx="36" fill="#101827"/>
  <circle cx="140" cy="118" r="13" fill="#22c55e"/>
  <circle cx="180" cy="118" r="13" fill="#38bdf8"/>
  <circle cx="220" cy="118" r="13" fill="#8b5cf6"/>
  <text x="292" y="133" fill="#ffffff" font-family="Inter, Arial, sans-serif" font-size="44" font-weight="900">OMNIX</text>
  <text x="486" y="130" fill="#9fb0c6" font-family="Inter, Arial, sans-serif" font-size="22" font-weight="700">Autonomous AI Desktop Agent</text>
  <rect x="1228" y="94" width="210" height="48" rx="24" fill="#22c55e"/>
  <text x="1274" y="125" fill="#ffffff" font-family="Inter, Arial, sans-serif" font-size="20" font-weight="800">Agent Loop</text>

  <rect x="134" y="226" width="404" height="546" rx="28" fill="#ecfeff" stroke="#bae6fd"/>
  <text x="180" y="292" fill="#0f172a" font-family="Inter, Arial, sans-serif" font-size="52" font-weight="900">Observe</text>
  <text x="180" y="354" fill="#0f172a" font-family="Inter, Arial, sans-serif" font-size="52" font-weight="900">Plan</text>
  <text x="180" y="416" fill="#0f172a" font-family="Inter, Arial, sans-serif" font-size="52" font-weight="900">Act</text>
  <text x="180" y="478" fill="#0f172a" font-family="Inter, Arial, sans-serif" font-size="52" font-weight="900">Verify</text>
  <text x="180" y="540" fill="#0f172a" font-family="Inter, Arial, sans-serif" font-size="52" font-weight="900">Recover</text>
  <text x="182" y="610" fill="#155e75" font-family="Inter, Arial, sans-serif" font-size="23" font-weight="650">A multimodal Windows agent that combines LLM reasoning, screen perception, memory, skills, browser automation, voice, and desktop control.</text>
  <rect x="180" y="688" width="246" height="52" rx="18" fill="#0f172a"/>
  <text x="224" y="722" fill="#ffffff" font-family="Inter, Arial, sans-serif" font-size="20" font-weight="850">Natural goal → action</text>

  <rect x="600" y="226" width="866" height="546" rx="30" fill="#f1f5f9" stroke="#dbe4ee"/>
  <rect x="658" y="286" width="750" height="78" rx="22" fill="#ffffff" stroke="#cbd5e1"/>
  <text x="700" y="337" fill="#0f172a" font-family="Inter, Arial, sans-serif" font-size="28" font-weight="850">Input → Context → AI Brain → Task Planner → Controller</text>

  <rect x="658" y="420" width="220" height="122" rx="22" fill="#ffffff" stroke="#dbe4ee"/>
  <rect x="916" y="420" width="220" height="122" rx="22" fill="#ffffff" stroke="#dbe4ee"/>
  <rect x="1174" y="420" width="234" height="122" rx="22" fill="#ffffff" stroke="#dbe4ee"/>
  <text x="698" y="470" fill="#2563eb" font-family="Inter, Arial, sans-serif" font-size="24" font-weight="900">Vision</text>
  <text x="698" y="508" fill="#475569" font-family="Inter, Arial, sans-serif" font-size="18" font-weight="650">YOLO + screen UI</text>
  <text x="956" y="470" fill="#16a34a" font-family="Inter, Arial, sans-serif" font-size="24" font-weight="900">Memory</text>
  <text x="956" y="508" fill="#475569" font-family="Inter, Arial, sans-serif" font-size="18" font-weight="650">Embeddings + context</text>
  <text x="1214" y="470" fill="#7c3aed" font-family="Inter, Arial, sans-serif" font-size="24" font-weight="900">Skills</text>
  <text x="1214" y="508" fill="#475569" font-family="Inter, Arial, sans-serif" font-size="18" font-weight="650">Extensible execution</text>

  <rect x="658" y="590" width="750" height="118" rx="22" fill="#0f172a"/>
  <text x="702" y="639" fill="#ffffff" font-family="Inter, Arial, sans-serif" font-size="26" font-weight="900">Automation Engine</text>
  <text x="702" y="680" fill="#cbd5e1" font-family="Inter, Arial, sans-serif" font-size="19" font-weight="650">PyAutoGUI · Playwright · PyQt6 · LLM APIs · Edge TTS · Sentence Transformers</text>

  <path d="M845 380C934 338 1050 338 1138 380" stroke="#38bdf8" stroke-width="10" stroke-linecap="round"/>
  <path d="M1138 380L1116 348M1138 380L1101 386" stroke="#38bdf8" stroke-width="10" stroke-linecap="round"/>
  <path d="M1138 560C1049 602 934 602 845 560" stroke="#22c55e" stroke-width="10" stroke-linecap="round"/>
  <path d="M845 560L867 592M845 560L882 554" stroke="#22c55e" stroke-width="10" stroke-linecap="round"/>
</svg>
